<mxfile host="app.diagrams.net" agent="Mozilla/5.0 (Windows NT 10.0; Win64; x64) AppleWebKit/537.36 (KHTML, like Gecko) Chrome/129.0.0.0 Safari/537.36" version="24.7.17">
  <diagram name="第 1 页" id="7e6b1SIIf1P2YIXd37s2">
    <mxGraphModel grid="1" page="1" gridSize="10" guides="1" tooltips="1" connect="1" arrows="1" fold="1" pageScale="1" pageWidth="827" pageHeight="1169" math="0" shadow="0">
      <root>
        <mxCell id="0" />
        <mxCell id="1" parent="0" />
        <mxCell id="drMRwfM-FAbGIWimcciS-1" value="評星宇宙 | 系統功能" style="rounded=1;whiteSpace=wrap;html=1;fillColor=#ffe6cc;strokeColor=#d79b00;" vertex="1" parent="1">
          <mxGeometry x="489" y="310" width="166" height="60" as="geometry" />
        </mxCell>
        <mxCell id="drMRwfM-FAbGIWimcciS-4" value="使用者" style="rounded=0;whiteSpace=wrap;html=1;fillColor=#d5e8d4;strokeColor=#82b366;" vertex="1" parent="1">
          <mxGeometry x="164" y="440" width="120" height="60" as="geometry" />
        </mxCell>
        <mxCell id="drMRwfM-FAbGIWimcciS-5" value="系統" style="rounded=0;whiteSpace=wrap;html=1;fillColor=#d5e8d4;strokeColor=#82b366;" vertex="1" parent="1">
          <mxGeometry x="855" y="440" width="120" height="60" as="geometry" />
        </mxCell>
        <mxCell id="drMRwfM-FAbGIWimcciS-8" value="" style="group" connectable="0" vertex="1" parent="1">
          <mxGeometry x="224" y="370" width="696" height="70" as="geometry" />
        </mxCell>
        <mxCell id="drMRwfM-FAbGIWimcciS-6" value="" style="endArrow=classic;html=1;rounded=0;exitX=0.5;exitY=1;exitDx=0;exitDy=0;entryX=0.5;entryY=0;entryDx=0;entryDy=0;" edge="1" parent="drMRwfM-FAbGIWimcciS-8" source="drMRwfM-FAbGIWimcciS-1" target="drMRwfM-FAbGIWimcciS-4">
          <mxGeometry width="50" height="50" relative="1" as="geometry">
            <mxPoint x="212.46315789473687" y="230" as="sourcePoint" />
            <mxPoint x="304.04210526315796" y="180" as="targetPoint" />
            <Array as="points">
              <mxPoint x="348" y="40" />
              <mxPoint y="40" />
            </Array>
          </mxGeometry>
        </mxCell>
        <mxCell id="drMRwfM-FAbGIWimcciS-7" value="" style="endArrow=classic;html=1;rounded=0;exitX=0.5;exitY=1;exitDx=0;exitDy=0;entryX=0.5;entryY=0;entryDx=0;entryDy=0;" edge="1" parent="drMRwfM-FAbGIWimcciS-8">
          <mxGeometry width="50" height="50" relative="1" as="geometry">
            <mxPoint x="348" as="sourcePoint" />
            <mxPoint x="696" y="70" as="targetPoint" />
            <Array as="points">
              <mxPoint x="348" y="40" />
              <mxPoint x="696" y="40" />
            </Array>
          </mxGeometry>
        </mxCell>
        <mxCell id="drMRwfM-FAbGIWimcciS-9" value="推薦商家" style="rounded=1;whiteSpace=wrap;html=1;fillColor=#dae8fc;strokeColor=#6c8ebf;" vertex="1" parent="1">
          <mxGeometry x="677" y="557" width="130" height="55" as="geometry" />
        </mxCell>
        <mxCell id="drMRwfM-FAbGIWimcciS-10" value="查詢商家" style="rounded=1;whiteSpace=wrap;html=1;fillColor=#dae8fc;strokeColor=#6c8ebf;" vertex="1" parent="1">
          <mxGeometry x="162" y="557" width="130" height="55" as="geometry" />
        </mxCell>
        <mxCell id="drMRwfM-FAbGIWimcciS-11" value="檢視資訊" style="rounded=1;whiteSpace=wrap;html=1;fillColor=#dae8fc;strokeColor=#6c8ebf;" vertex="1" parent="1">
          <mxGeometry x="332" y="557" width="130" height="55" as="geometry" />
        </mxCell>
        <mxCell id="drMRwfM-FAbGIWimcciS-12" value="會員資料" style="rounded=1;whiteSpace=wrap;html=1;fillColor=#dae8fc;strokeColor=#6c8ebf;" vertex="1" parent="1">
          <mxGeometry x="496" y="557" width="130" height="55" as="geometry" />
        </mxCell>
        <mxCell id="drMRwfM-FAbGIWimcciS-13" value="會員" style="rounded=1;whiteSpace=wrap;html=1;fillColor=#dae8fc;strokeColor=#6c8ebf;" vertex="1" parent="1">
          <mxGeometry x="-18" y="557" width="130" height="55" as="geometry" />
        </mxCell>
        <mxCell id="drMRwfM-FAbGIWimcciS-14" value="" style="endArrow=classic;html=1;rounded=0;entryX=0.459;entryY=0.014;entryDx=0;entryDy=0;exitX=0.5;exitY=1;exitDx=0;exitDy=0;entryPerimeter=0;" edge="1" parent="1" source="drMRwfM-FAbGIWimcciS-4" target="drMRwfM-FAbGIWimcciS-13">
          <mxGeometry width="50" height="50" relative="1" as="geometry">
            <mxPoint x="200" y="530" as="sourcePoint" />
            <mxPoint x="250" y="480" as="targetPoint" />
            <Array as="points">
              <mxPoint x="224" y="530" />
              <mxPoint x="42" y="530" />
            </Array>
          </mxGeometry>
        </mxCell>
        <mxCell id="drMRwfM-FAbGIWimcciS-16" value="" style="endArrow=classic;html=1;rounded=0;entryX=0.473;entryY=-0.024;entryDx=0;entryDy=0;entryPerimeter=0;" edge="1" parent="1">
          <mxGeometry width="50" height="50" relative="1" as="geometry">
            <mxPoint x="224" y="501.32" as="sourcePoint" />
            <mxPoint x="224" y="557" as="targetPoint" />
          </mxGeometry>
        </mxCell>
        <mxCell id="drMRwfM-FAbGIWimcciS-17" value="" style="endArrow=classic;html=1;rounded=0;exitX=0.5;exitY=1;exitDx=0;exitDy=0;entryX=0.5;entryY=0;entryDx=0;entryDy=0;" edge="1" parent="1" source="drMRwfM-FAbGIWimcciS-4" target="drMRwfM-FAbGIWimcciS-11">
          <mxGeometry width="50" height="50" relative="1" as="geometry">
            <mxPoint x="310" y="550" as="sourcePoint" />
            <mxPoint x="360" y="500" as="targetPoint" />
            <Array as="points">
              <mxPoint x="224" y="530" />
              <mxPoint x="397" y="530" />
            </Array>
          </mxGeometry>
        </mxCell>
        <mxCell id="drMRwfM-FAbGIWimcciS-18" value="" style="endArrow=classic;html=1;rounded=0;exitX=0.5;exitY=1;exitDx=0;exitDy=0;entryX=0.5;entryY=0;entryDx=0;entryDy=0;" edge="1" parent="1" source="drMRwfM-FAbGIWimcciS-4" target="drMRwfM-FAbGIWimcciS-12">
          <mxGeometry width="50" height="50" relative="1" as="geometry">
            <mxPoint x="310" y="550" as="sourcePoint" />
            <mxPoint x="360" y="500" as="targetPoint" />
            <Array as="points">
              <mxPoint x="224" y="530" />
              <mxPoint x="560" y="530" />
            </Array>
          </mxGeometry>
        </mxCell>
        <mxCell id="drMRwfM-FAbGIWimcciS-19" value="註冊會員" style="rounded=1;whiteSpace=wrap;html=1;" vertex="1" parent="1">
          <mxGeometry x="-18" y="640" width="130" height="55" as="geometry" />
        </mxCell>
        <mxCell id="drMRwfM-FAbGIWimcciS-20" value="登入會員" style="rounded=1;whiteSpace=wrap;html=1;" vertex="1" parent="1">
          <mxGeometry x="-18" y="710" width="130" height="55" as="geometry" />
        </mxCell>
        <mxCell id="drMRwfM-FAbGIWimcciS-21" value="忘記密碼" style="rounded=1;whiteSpace=wrap;html=1;" vertex="1" parent="1">
          <mxGeometry x="-18" y="780" width="130" height="55" as="geometry" />
        </mxCell>
        <mxCell id="drMRwfM-FAbGIWimcciS-25" value="熱門推薦" style="rounded=1;whiteSpace=wrap;html=1;" vertex="1" parent="1">
          <mxGeometry x="677" y="640" width="130" height="55" as="geometry" />
        </mxCell>
        <mxCell id="drMRwfM-FAbGIWimcciS-26" value="偏好推薦" style="rounded=1;whiteSpace=wrap;html=1;" vertex="1" parent="1">
          <mxGeometry x="677" y="710" width="130" height="55" as="geometry" />
        </mxCell>
        <mxCell id="drMRwfM-FAbGIWimcciS-27" value="隨機推薦" style="rounded=1;whiteSpace=wrap;html=1;" vertex="1" parent="1">
          <mxGeometry x="677" y="780" width="130" height="55" as="geometry" />
        </mxCell>
        <mxCell id="drMRwfM-FAbGIWimcciS-32" value="" style="group" connectable="0" vertex="1" parent="1">
          <mxGeometry x="655" y="585" width="22" height="223" as="geometry" />
        </mxCell>
        <mxCell id="drMRwfM-FAbGIWimcciS-29" value="" style="endArrow=classic;html=1;rounded=0;exitX=0;exitY=0.5;exitDx=0;exitDy=0;entryX=0;entryY=0.5;entryDx=0;entryDy=0;" edge="1" parent="drMRwfM-FAbGIWimcciS-32" source="drMRwfM-FAbGIWimcciS-9" target="drMRwfM-FAbGIWimcciS-27">
          <mxGeometry width="50" height="50" relative="1" as="geometry">
            <mxPoint x="-100" y="115" as="sourcePoint" />
            <mxPoint x="-50" y="65" as="targetPoint" />
            <Array as="points">
              <mxPoint />
              <mxPoint y="223" />
            </Array>
          </mxGeometry>
        </mxCell>
        <mxCell id="drMRwfM-FAbGIWimcciS-30" value="" style="endArrow=classic;html=1;rounded=0;entryX=0;entryY=0.549;entryDx=0;entryDy=0;entryPerimeter=0;" edge="1" parent="drMRwfM-FAbGIWimcciS-32" target="drMRwfM-FAbGIWimcciS-26">
          <mxGeometry width="50" height="50" relative="1" as="geometry">
            <mxPoint y="155" as="sourcePoint" />
            <mxPoint x="50" y="105" as="targetPoint" />
          </mxGeometry>
        </mxCell>
        <mxCell id="drMRwfM-FAbGIWimcciS-31" value="" style="endArrow=classic;html=1;rounded=0;entryX=0;entryY=0.549;entryDx=0;entryDy=0;entryPerimeter=0;" edge="1" parent="drMRwfM-FAbGIWimcciS-32">
          <mxGeometry width="50" height="50" relative="1" as="geometry">
            <mxPoint y="85" as="sourcePoint" />
            <mxPoint x="22" y="85" as="targetPoint" />
          </mxGeometry>
        </mxCell>
        <mxCell id="drMRwfM-FAbGIWimcciS-41" value="" style="endArrow=classic;html=1;rounded=0;entryX=0;entryY=0.556;entryDx=0;entryDy=0;exitX=0;exitY=0.5;exitDx=0;exitDy=0;entryPerimeter=0;" edge="1" parent="1" source="drMRwfM-FAbGIWimcciS-13" target="drMRwfM-FAbGIWimcciS-21">
          <mxGeometry width="50" height="50" relative="1" as="geometry">
            <mxPoint x="-120" y="680" as="sourcePoint" />
            <mxPoint x="-70" y="630" as="targetPoint" />
            <Array as="points">
              <mxPoint x="-40" y="585" />
              <mxPoint x="-40" y="810" />
            </Array>
          </mxGeometry>
        </mxCell>
        <mxCell id="drMRwfM-FAbGIWimcciS-42" value="" style="endArrow=classic;html=1;rounded=0;entryX=0;entryY=0.5;entryDx=0;entryDy=0;" edge="1" parent="1" target="drMRwfM-FAbGIWimcciS-20">
          <mxGeometry width="50" height="50" relative="1" as="geometry">
            <mxPoint x="-40" y="738" as="sourcePoint" />
            <mxPoint x="-50" y="700" as="targetPoint" />
          </mxGeometry>
        </mxCell>
        <mxCell id="drMRwfM-FAbGIWimcciS-43" value="" style="endArrow=classic;html=1;rounded=0;entryX=0;entryY=0.5;entryDx=0;entryDy=0;" edge="1" parent="1" target="drMRwfM-FAbGIWimcciS-19">
          <mxGeometry width="50" height="50" relative="1" as="geometry">
            <mxPoint x="-40" y="668" as="sourcePoint" />
            <mxPoint x="-50" y="700" as="targetPoint" />
          </mxGeometry>
        </mxCell>
        <mxCell id="drMRwfM-FAbGIWimcciS-44" value="設定查詢條件" style="rounded=1;whiteSpace=wrap;html=1;" vertex="1" parent="1">
          <mxGeometry x="162" y="640" width="130" height="55" as="geometry" />
        </mxCell>
        <mxCell id="drMRwfM-FAbGIWimcciS-45" value="輸入查詢項目" style="rounded=1;whiteSpace=wrap;html=1;" vertex="1" parent="1">
          <mxGeometry x="162" y="710" width="130" height="55" as="geometry" />
        </mxCell>
        <mxCell id="drMRwfM-FAbGIWimcciS-46" value="選擇查詢位置" style="rounded=1;whiteSpace=wrap;html=1;" vertex="1" parent="1">
          <mxGeometry x="162" y="780" width="130" height="55" as="geometry" />
        </mxCell>
        <mxCell id="drMRwfM-FAbGIWimcciS-50" value="" style="group" connectable="0" vertex="1" parent="1">
          <mxGeometry x="140" y="585" height="225" as="geometry" />
        </mxCell>
        <mxCell id="drMRwfM-FAbGIWimcciS-47" value="" style="endArrow=classic;html=1;rounded=0;exitX=0;exitY=0.5;exitDx=0;exitDy=0;entryX=0.003;entryY=0.552;entryDx=0;entryDy=0;entryPerimeter=0;" edge="1" parent="drMRwfM-FAbGIWimcciS-50" source="drMRwfM-FAbGIWimcciS-10" target="drMRwfM-FAbGIWimcciS-46">
          <mxGeometry width="50" height="50" relative="1" as="geometry">
            <mxPoint x="60" y="115" as="sourcePoint" />
            <mxPoint x="20" y="225" as="targetPoint" />
            <Array as="points">
              <mxPoint />
              <mxPoint y="225" />
            </Array>
          </mxGeometry>
        </mxCell>
        <mxCell id="drMRwfM-FAbGIWimcciS-48" value="" style="endArrow=classic;html=1;rounded=0;entryX=0.008;entryY=0.552;entryDx=0;entryDy=0;entryPerimeter=0;" edge="1" parent="drMRwfM-FAbGIWimcciS-50" target="drMRwfM-FAbGIWimcciS-45">
          <mxGeometry width="50" height="50" relative="1" as="geometry">
            <mxPoint y="155" as="sourcePoint" />
            <mxPoint x="70" y="65" as="targetPoint" />
          </mxGeometry>
        </mxCell>
        <mxCell id="drMRwfM-FAbGIWimcciS-49" value="" style="endArrow=classic;html=1;rounded=0;entryX=0.003;entryY=0.57;entryDx=0;entryDy=0;entryPerimeter=0;" edge="1" parent="drMRwfM-FAbGIWimcciS-50" target="drMRwfM-FAbGIWimcciS-44">
          <mxGeometry width="50" height="50" relative="1" as="geometry">
            <mxPoint y="86" as="sourcePoint" />
            <mxPoint x="20" y="86" as="targetPoint" />
          </mxGeometry>
        </mxCell>
        <mxCell id="drMRwfM-FAbGIWimcciS-51" value="綜合評分" style="rounded=1;whiteSpace=wrap;html=1;" vertex="1" parent="1">
          <mxGeometry x="332" y="640" width="130" height="55" as="geometry" />
        </mxCell>
        <mxCell id="drMRwfM-FAbGIWimcciS-52" value="指標分析" style="rounded=1;whiteSpace=wrap;html=1;" vertex="1" parent="1">
          <mxGeometry x="332" y="710" width="130" height="55" as="geometry" />
        </mxCell>
        <mxCell id="drMRwfM-FAbGIWimcciS-53" value="加入收藏商家" style="rounded=1;whiteSpace=wrap;html=1;" vertex="1" parent="1">
          <mxGeometry x="332" y="780" width="130" height="55" as="geometry" />
        </mxCell>
        <mxCell id="drMRwfM-FAbGIWimcciS-54" value="瀏覽地圖網站" style="rounded=1;whiteSpace=wrap;html=1;" vertex="1" parent="1">
          <mxGeometry x="332" y="850" width="130" height="55" as="geometry" />
        </mxCell>
        <mxCell id="drMRwfM-FAbGIWimcciS-55" value="瀏覽官方網站" style="rounded=1;whiteSpace=wrap;html=1;" vertex="1" parent="1">
          <mxGeometry x="332" y="920" width="130" height="55" as="geometry" />
        </mxCell>
        <mxCell id="drMRwfM-FAbGIWimcciS-61" value="修改會員資料" style="rounded=1;whiteSpace=wrap;html=1;" vertex="1" parent="1">
          <mxGeometry x="496" y="640" width="130" height="55" as="geometry" />
        </mxCell>
        <mxCell id="drMRwfM-FAbGIWimcciS-62" value="修改偏好設定" style="rounded=1;whiteSpace=wrap;html=1;" vertex="1" parent="1">
          <mxGeometry x="496" y="710" width="130" height="55" as="geometry" />
        </mxCell>
        <mxCell id="drMRwfM-FAbGIWimcciS-63" value="修改指標權重" style="rounded=1;whiteSpace=wrap;html=1;" vertex="1" parent="1">
          <mxGeometry x="496" y="780" width="130" height="55" as="geometry" />
        </mxCell>
        <mxCell id="drMRwfM-FAbGIWimcciS-64" value="檢視收藏商家" style="rounded=1;whiteSpace=wrap;html=1;" vertex="1" parent="1">
          <mxGeometry x="496" y="850" width="130" height="55" as="geometry" />
        </mxCell>
        <mxCell id="drMRwfM-FAbGIWimcciS-69" value="" style="group" connectable="0" vertex="1" parent="1">
          <mxGeometry x="480" y="585" height="293" as="geometry" />
        </mxCell>
        <mxCell id="drMRwfM-FAbGIWimcciS-65" value="" style="endArrow=classic;html=1;rounded=0;exitX=0;exitY=0.5;exitDx=0;exitDy=0;entryX=0;entryY=0.5;entryDx=0;entryDy=0;" edge="1" parent="drMRwfM-FAbGIWimcciS-69" source="drMRwfM-FAbGIWimcciS-12" target="drMRwfM-FAbGIWimcciS-64">
          <mxGeometry width="50" height="50" relative="1" as="geometry">
            <mxPoint x="30" y="195" as="sourcePoint" />
            <mxPoint x="80" y="145" as="targetPoint" />
            <Array as="points">
              <mxPoint />
              <mxPoint y="293" />
            </Array>
          </mxGeometry>
        </mxCell>
        <mxCell id="drMRwfM-FAbGIWimcciS-66" value="" style="endArrow=classic;html=1;rounded=0;entryX=0;entryY=0.5;entryDx=0;entryDy=0;" edge="1" parent="drMRwfM-FAbGIWimcciS-69" target="drMRwfM-FAbGIWimcciS-63">
          <mxGeometry width="50" height="50" relative="1" as="geometry">
            <mxPoint y="223" as="sourcePoint" />
            <mxPoint x="50" y="173" as="targetPoint" />
          </mxGeometry>
        </mxCell>
        <mxCell id="drMRwfM-FAbGIWimcciS-67" value="" style="endArrow=classic;html=1;rounded=0;entryX=0;entryY=0.5;entryDx=0;entryDy=0;" edge="1" parent="drMRwfM-FAbGIWimcciS-69" target="drMRwfM-FAbGIWimcciS-62">
          <mxGeometry width="50" height="50" relative="1" as="geometry">
            <mxPoint y="153" as="sourcePoint" />
            <mxPoint x="50" y="105" as="targetPoint" />
          </mxGeometry>
        </mxCell>
        <mxCell id="drMRwfM-FAbGIWimcciS-68" value="" style="endArrow=classic;html=1;rounded=0;entryX=0.003;entryY=0.549;entryDx=0;entryDy=0;entryPerimeter=0;" edge="1" parent="drMRwfM-FAbGIWimcciS-69" target="drMRwfM-FAbGIWimcciS-61">
          <mxGeometry width="50" height="50" relative="1" as="geometry">
            <mxPoint y="85" as="sourcePoint" />
            <mxPoint x="50" y="55" as="targetPoint" />
          </mxGeometry>
        </mxCell>
        <mxCell id="drMRwfM-FAbGIWimcciS-70" value="" style="group" connectable="0" vertex="1" parent="1">
          <mxGeometry x="310" y="585" height="363" as="geometry" />
        </mxCell>
        <mxCell id="drMRwfM-FAbGIWimcciS-56" value="" style="endArrow=classic;html=1;rounded=0;exitX=0;exitY=0.5;exitDx=0;exitDy=0;entryX=0;entryY=0.5;entryDx=0;entryDy=0;" edge="1" parent="drMRwfM-FAbGIWimcciS-70" source="drMRwfM-FAbGIWimcciS-11" target="drMRwfM-FAbGIWimcciS-55">
          <mxGeometry width="50" height="50" relative="1" as="geometry">
            <mxPoint x="50" y="225" as="sourcePoint" />
            <mxPoint x="100" y="175" as="targetPoint" />
            <Array as="points">
              <mxPoint />
              <mxPoint y="363" />
            </Array>
          </mxGeometry>
        </mxCell>
        <mxCell id="drMRwfM-FAbGIWimcciS-57" value="" style="endArrow=classic;html=1;rounded=0;entryX=0.005;entryY=0.552;entryDx=0;entryDy=0;entryPerimeter=0;" edge="1" parent="drMRwfM-FAbGIWimcciS-70" target="drMRwfM-FAbGIWimcciS-54">
          <mxGeometry width="50" height="50" relative="1" as="geometry">
            <mxPoint y="295" as="sourcePoint" />
            <mxPoint x="70" y="225" as="targetPoint" />
          </mxGeometry>
        </mxCell>
        <mxCell id="drMRwfM-FAbGIWimcciS-58" value="" style="endArrow=classic;html=1;rounded=0;entryX=-0.003;entryY=0.558;entryDx=0;entryDy=0;entryPerimeter=0;" edge="1" parent="drMRwfM-FAbGIWimcciS-70" target="drMRwfM-FAbGIWimcciS-53">
          <mxGeometry width="50" height="50" relative="1" as="geometry">
            <mxPoint y="225" as="sourcePoint" />
            <mxPoint x="70" y="195" as="targetPoint" />
          </mxGeometry>
        </mxCell>
        <mxCell id="drMRwfM-FAbGIWimcciS-59" value="" style="endArrow=classic;html=1;rounded=0;entryX=-0.005;entryY=0.552;entryDx=0;entryDy=0;entryPerimeter=0;" edge="1" parent="drMRwfM-FAbGIWimcciS-70" target="drMRwfM-FAbGIWimcciS-52">
          <mxGeometry width="50" height="50" relative="1" as="geometry">
            <mxPoint y="155" as="sourcePoint" />
            <mxPoint x="70" y="95" as="targetPoint" />
          </mxGeometry>
        </mxCell>
        <mxCell id="drMRwfM-FAbGIWimcciS-60" value="" style="endArrow=classic;html=1;rounded=0;entryX=-0.005;entryY=0.552;entryDx=0;entryDy=0;entryPerimeter=0;" edge="1" parent="drMRwfM-FAbGIWimcciS-70" target="drMRwfM-FAbGIWimcciS-51">
          <mxGeometry width="50" height="50" relative="1" as="geometry">
            <mxPoint y="85" as="sourcePoint" />
            <mxPoint x="70" y="25" as="targetPoint" />
          </mxGeometry>
        </mxCell>
        <mxCell id="drMRwfM-FAbGIWimcciS-104" value="" style="edgeStyle=orthogonalEdgeStyle;rounded=0;orthogonalLoop=1;jettySize=auto;html=1;" edge="1" parent="1" source="drMRwfM-FAbGIWimcciS-72" target="drMRwfM-FAbGIWimcciS-9">
          <mxGeometry relative="1" as="geometry" />
        </mxCell>
        <mxCell id="drMRwfM-FAbGIWimcciS-72" value="爬取資料" style="rounded=1;whiteSpace=wrap;html=1;fillColor=#dae8fc;strokeColor=#6c8ebf;" vertex="1" parent="1">
          <mxGeometry x="850" y="557" width="130" height="55" as="geometry" />
        </mxCell>
        <mxCell id="drMRwfM-FAbGIWimcciS-73" value="文本分析" style="rounded=1;whiteSpace=wrap;html=1;fillColor=#dae8fc;strokeColor=#6c8ebf;" vertex="1" parent="1">
          <mxGeometry x="1010" y="557" width="130" height="55" as="geometry" />
        </mxCell>
        <mxCell id="drMRwfM-FAbGIWimcciS-74" value="" style="endArrow=classic;html=1;rounded=0;exitX=0.5;exitY=1;exitDx=0;exitDy=0;entryX=0.463;entryY=0.033;entryDx=0;entryDy=0;entryPerimeter=0;" edge="1" parent="1" source="drMRwfM-FAbGIWimcciS-5">
          <mxGeometry width="50" height="50" relative="1" as="geometry">
            <mxPoint x="840" y="620" as="sourcePoint" />
            <mxPoint x="750.19" y="558.815" as="targetPoint" />
            <Array as="points">
              <mxPoint x="915" y="520" />
              <mxPoint x="750" y="520" />
            </Array>
          </mxGeometry>
        </mxCell>
        <mxCell id="drMRwfM-FAbGIWimcciS-75" value="" style="endArrow=classic;html=1;rounded=0;exitX=0.5;exitY=1;exitDx=0;exitDy=0;entryX=0.5;entryY=0;entryDx=0;entryDy=0;" edge="1" parent="1" source="drMRwfM-FAbGIWimcciS-5" target="drMRwfM-FAbGIWimcciS-72">
          <mxGeometry width="50" height="50" relative="1" as="geometry">
            <mxPoint x="890" y="520" as="sourcePoint" />
            <mxPoint x="940" y="470" as="targetPoint" />
          </mxGeometry>
        </mxCell>
        <mxCell id="drMRwfM-FAbGIWimcciS-76" value="" style="endArrow=classic;html=1;rounded=0;entryX=0.5;entryY=0;entryDx=0;entryDy=0;exitX=0.5;exitY=1;exitDx=0;exitDy=0;" edge="1" parent="1" source="drMRwfM-FAbGIWimcciS-5" target="drMRwfM-FAbGIWimcciS-73">
          <mxGeometry width="50" height="50" relative="1" as="geometry">
            <mxPoint x="890" y="520" as="sourcePoint" />
            <mxPoint x="940" y="470" as="targetPoint" />
            <Array as="points">
              <mxPoint x="915" y="520" />
              <mxPoint x="1075" y="520" />
            </Array>
          </mxGeometry>
        </mxCell>
        <mxCell id="drMRwfM-FAbGIWimcciS-78" value="取得地圖資料" style="rounded=1;whiteSpace=wrap;html=1;" vertex="1" parent="1">
          <mxGeometry x="850" y="640" width="130" height="55" as="geometry" />
        </mxCell>
        <mxCell id="drMRwfM-FAbGIWimcciS-79" value="取得商家資料" style="rounded=1;whiteSpace=wrap;html=1;" vertex="1" parent="1">
          <mxGeometry x="850" y="710" width="130" height="55" as="geometry" />
        </mxCell>
        <mxCell id="drMRwfM-FAbGIWimcciS-80" value="取得相關資料" style="rounded=1;whiteSpace=wrap;html=1;" vertex="1" parent="1">
          <mxGeometry x="850" y="780" width="130" height="55" as="geometry" />
        </mxCell>
        <mxCell id="drMRwfM-FAbGIWimcciS-88" value="" style="group" connectable="0" vertex="1" parent="1">
          <mxGeometry x="830" y="585" width="20" height="225" as="geometry" />
        </mxCell>
        <mxCell id="drMRwfM-FAbGIWimcciS-85" value="" style="endArrow=classic;html=1;rounded=0;exitX=0;exitY=0.5;exitDx=0;exitDy=0;" edge="1" parent="drMRwfM-FAbGIWimcciS-88" source="drMRwfM-FAbGIWimcciS-72">
          <mxGeometry width="50" height="50" relative="1" as="geometry">
            <mxPoint x="10" y="95" as="sourcePoint" />
            <mxPoint x="20" y="225" as="targetPoint" />
            <Array as="points">
              <mxPoint />
              <mxPoint y="225" />
            </Array>
          </mxGeometry>
        </mxCell>
        <mxCell id="drMRwfM-FAbGIWimcciS-86" value="" style="endArrow=classic;html=1;rounded=0;entryX=0.001;entryY=0.541;entryDx=0;entryDy=0;entryPerimeter=0;" edge="1" parent="drMRwfM-FAbGIWimcciS-88" target="drMRwfM-FAbGIWimcciS-78">
          <mxGeometry width="50" height="50" relative="1" as="geometry">
            <mxPoint y="85" as="sourcePoint" />
            <mxPoint x="50" y="35" as="targetPoint" />
          </mxGeometry>
        </mxCell>
        <mxCell id="drMRwfM-FAbGIWimcciS-87" value="" style="endArrow=classic;html=1;rounded=0;entryX=0.001;entryY=0.541;entryDx=0;entryDy=0;entryPerimeter=0;" edge="1" parent="drMRwfM-FAbGIWimcciS-88">
          <mxGeometry width="50" height="50" relative="1" as="geometry">
            <mxPoint y="155" as="sourcePoint" />
            <mxPoint x="20" y="155" as="targetPoint" />
          </mxGeometry>
        </mxCell>
        <mxCell id="drMRwfM-FAbGIWimcciS-93" value="分析評論情感" style="rounded=1;whiteSpace=wrap;html=1;" vertex="1" parent="1">
          <mxGeometry x="1010" y="640" width="130" height="55" as="geometry" />
        </mxCell>
        <mxCell id="drMRwfM-FAbGIWimcciS-94" value="劃分指標類型" style="rounded=1;whiteSpace=wrap;html=1;" vertex="1" parent="1">
          <mxGeometry x="1010" y="780" width="130" height="55" as="geometry" />
        </mxCell>
        <mxCell id="drMRwfM-FAbGIWimcciS-95" value="劃分評論立場" style="rounded=1;whiteSpace=wrap;html=1;" vertex="1" parent="1">
          <mxGeometry x="1010" y="710" width="130" height="55" as="geometry" />
        </mxCell>
        <mxCell id="drMRwfM-FAbGIWimcciS-96" value="計算商家分數" style="rounded=1;whiteSpace=wrap;html=1;" vertex="1" parent="1">
          <mxGeometry x="1010" y="850" width="130" height="55" as="geometry" />
        </mxCell>
        <mxCell id="drMRwfM-FAbGIWimcciS-97" value="拆分推薦餐點" style="rounded=1;whiteSpace=wrap;html=1;" vertex="1" parent="1">
          <mxGeometry x="1010" y="920" width="130" height="55" as="geometry" />
        </mxCell>
        <mxCell id="drMRwfM-FAbGIWimcciS-103" value="" style="group" connectable="0" vertex="1" parent="1">
          <mxGeometry x="990" y="585" height="365" as="geometry" />
        </mxCell>
        <mxCell id="drMRwfM-FAbGIWimcciS-98" value="" style="endArrow=classic;html=1;rounded=0;entryX=0;entryY=0.545;entryDx=0;entryDy=0;exitX=0;exitY=0.5;exitDx=0;exitDy=0;entryPerimeter=0;" edge="1" parent="drMRwfM-FAbGIWimcciS-103" source="drMRwfM-FAbGIWimcciS-73" target="drMRwfM-FAbGIWimcciS-97">
          <mxGeometry width="50" height="50" relative="1" as="geometry">
            <mxPoint x="20" y="205" as="sourcePoint" />
            <mxPoint x="70" y="155" as="targetPoint" />
            <Array as="points">
              <mxPoint />
              <mxPoint y="365" />
            </Array>
          </mxGeometry>
        </mxCell>
        <mxCell id="drMRwfM-FAbGIWimcciS-99" value="" style="endArrow=classic;html=1;rounded=0;entryX=0.001;entryY=0.541;entryDx=0;entryDy=0;entryPerimeter=0;" edge="1" parent="drMRwfM-FAbGIWimcciS-103" target="drMRwfM-FAbGIWimcciS-96">
          <mxGeometry width="50" height="50" relative="1" as="geometry">
            <mxPoint y="295" as="sourcePoint" />
            <mxPoint x="80" y="205" as="targetPoint" />
          </mxGeometry>
        </mxCell>
        <mxCell id="drMRwfM-FAbGIWimcciS-100" value="" style="endArrow=classic;html=1;rounded=0;entryX=0.008;entryY=0.547;entryDx=0;entryDy=0;entryPerimeter=0;" edge="1" parent="drMRwfM-FAbGIWimcciS-103" target="drMRwfM-FAbGIWimcciS-94">
          <mxGeometry width="50" height="50" relative="1" as="geometry">
            <mxPoint y="225" as="sourcePoint" />
            <mxPoint x="80" y="205" as="targetPoint" />
          </mxGeometry>
        </mxCell>
        <mxCell id="drMRwfM-FAbGIWimcciS-101" value="" style="endArrow=classic;html=1;rounded=0;entryX=0.008;entryY=0.547;entryDx=0;entryDy=0;entryPerimeter=0;" edge="1" parent="drMRwfM-FAbGIWimcciS-103" target="drMRwfM-FAbGIWimcciS-95">
          <mxGeometry width="50" height="50" relative="1" as="geometry">
            <mxPoint y="155" as="sourcePoint" />
            <mxPoint x="80" y="75" as="targetPoint" />
          </mxGeometry>
        </mxCell>
        <mxCell id="drMRwfM-FAbGIWimcciS-102" value="" style="endArrow=classic;html=1;rounded=0;entryX=0.001;entryY=0.547;entryDx=0;entryDy=0;entryPerimeter=0;" edge="1" parent="drMRwfM-FAbGIWimcciS-103" target="drMRwfM-FAbGIWimcciS-93">
          <mxGeometry width="50" height="50" relative="1" as="geometry">
            <mxPoint y="85" as="sourcePoint" />
            <mxPoint x="80" y="75" as="targetPoint" />
          </mxGeometry>
        </mxCell>
      </root>
    </mxGraphModel>
  </diagram>
</mxfile>
